<?xml version="1.0" encoding="utf-8"?>
<!-- Generator: Adobe Illustrator 26.0.0, SVG Export Plug-In . SVG Version: 6.00 Build 0)  -->
<svg version="1.1" id="Capa_1" xmlns="http://www.w3.org/2000/svg" xmlns:xlink="http://www.w3.org/1999/xlink" x="0px" y="0px"
	 viewBox="0 0 1000 1000" style="enable-background:new 0 0 1000 1000;" xml:space="preserve">
<style type="text/css">
	.st0{fill:#CECECE;}
</style>
<g>
	<path class="st0" d="M983.8,416.2c-3.9-4.1-9.6-6.5-15.6-6.5c-3.1,0-6.2,0.6-9.1,1.8L926,424.9l-184.7,74.9c-5.2,2.1-7.7,7-8.8,9.8
		c-2.1,5.6-2.1,12.2,0.2,16.9c4.7,10,14.4,11.1,18.2,11.1c3.2,0,6.5-0.7,9.7-2l48.4-19.6l48.4-19.6l65.8-26.7l-48.4,52
		c-80.2,86.4-167.5,155.7-259.7,206.1c-61.2,33.5-112.9,49.1-162.5,49.1c-7.7,0-15.5-0.4-23.1-1.2c-66.1-6.9-119.9-44.3-140.5-97.4
		c-5.8-14.9-9.3-31.4-10.7-50.3l-1.1-14.4l14.2-2.4c43.6-7.2,85.1-21.1,123.3-41c39.1-20.5,130.5-78,134.3-170.2
		c1.6-38-12.4-76.1-37.3-102.2c-14.2-14.8-38.6-32.4-74.5-32.4h-2.9c-65.5,1.7-122.5,49.9-152.4,128.9
		c-13.6,35.7-22.3,73.9-30.9,113.1c-4.7,21.8-7.9,39.5-10.1,55.9l-1.8,13.4l-13.5,0.2c-2.8,0.1-5.6,0.1-8.4,0.1
		c-63.4,0-124.9-14.8-177.9-42.7c-4.7-2.4-9.5-3.8-14-3.8c-6.7,0-11.9,2.8-15.6,8.3c-3.1,4.5-4.1,11.7-2.5,17.9
		c0.8,3.2,2.5,7.3,6.4,9.4c63.1,33.2,134.7,50.8,206.8,50.8h2.4l14.6-0.1l1.3,14.4c5.9,67.1,37.2,121,88.2,151.9
		c36.8,22.3,80.7,34.1,127,34.1c27.5,0,55.3-4.1,82.6-12.2c89.5-26.4,169.9-83.2,230-129.6c51.8-40.2,101.9-86.6,148.7-138
		l29.7-32.5l-2.2,44l-2.1,41.4l-1.9,38.2l-1.5,28.6c-0.6,11.1,8.1,21.1,18.9,21.9h1.2c10.3,0,19.9-8.8,20.4-18.7l6.4-126.3l3.8-74.3
		L989,431C989.3,425.2,987.5,420,983.8,416.2z M283.2,549.8c2.1-11.6,4.6-23.7,8.1-39.3c1.3-5.6,2.6-11.4,3.9-17.3
		c12.4-55.8,27.9-125.2,77.9-164.4c18.1-14.1,39.5-21.9,60.1-21.9c33.9,0,60.3,20.4,70.7,54.6c16.9,55.7-13.9,114.8-82.3,158
		c-35.7,22.6-76,38.9-119.6,48.4l-23,5L283.2,549.8z"/>
</g>
</svg>
