<?xml version="1.0" encoding="utf-8"?>
<!-- Generator: Adobe Illustrator 26.0.0, SVG Export Plug-In . SVG Version: 6.00 Build 0)  -->
<svg version="1.1" id="Capa_1" xmlns="http://www.w3.org/2000/svg" xmlns:xlink="http://www.w3.org/1999/xlink" x="0px" y="0px"
	 viewBox="0 0 1000 1000" style="enable-background:new 0 0 1000 1000;" xml:space="preserve">
<style type="text/css">
	.st0{fill:#CECECE;}
</style>
<g>
	<g>
		<path class="st0" d="M571,801.5c-4.3-9.6-10.7-18-17.5-26c-13.2-15.5-34-28.2-54.4-31c-3.4-0.5-6.7-0.7-9.9-0.9
			c-3-0.7-6.2-1.2-9.5-1.1c-24,0.6-44.4,9.7-62.9,24.5c-15.7,12.7-25.9,30.4-33,48.9c-7,18.4-7.6,40.2-2.7,59.2
			c5.8,22.4,20,39.9,38.3,53.4c15.7,11.6,34.9,16.4,54,18.3c19.4,2,38.6-2.8,56.2-10.8c35.3-16,57.1-56.8,52.3-95
			C580.1,826.4,577,814.9,571,801.5z M489.4,827.5c1.7,1.5,3.3,3.2,4.8,4.8c1.7,2.6,3.3,5.2,4.6,7.9c0.7,2.2,1.3,4.5,1.8,6.8
			c0.1,2,0.1,4,0,6.1c-0.2,0.8-0.3,1.6-0.6,2.3c-0.6,1.1-1.2,2.2-1.9,3.3c-1,1.1-2,2.1-3.1,3.1c-0.9,0.5-1.8,1-2.7,1.5
			c-2.2,0.7-4.4,1.3-6.7,1.8c-3,0.2-6,0.2-8.9,0c-2.6-0.6-5.1-1.3-7.6-2.1c-1.2-0.6-2.4-1.3-3.6-2c-1.1-1-2-2-3-3
			c-0.5-0.9-1-1.7-1.5-2.6c-0.5-1.5-0.9-3-1.2-4.6c0-1,0-2,0.1-3.1c0.6-2.5,1.2-5.1,2.1-7.5c1-1.9,2.1-3.9,3.2-5.7
			c2-2.3,4.2-4.5,6.4-6.5c1.3-0.9,2.7-1.7,4.1-2.4c1.7-0.5,3.4-1.1,5.1-1.4c1.7,0.3,3.4,0.8,5.1,1.3
			C487.2,826.2,488.3,826.8,489.4,827.5z"/>
		<path class="st0" d="M427.2,176.9C428,173.8,427.6,173.1,427.2,176.9L427.2,176.9z"/>
		<path class="st0" d="M566.5,168c0-0.1-0.1-0.2-0.1-0.3c-0.1,0-0.1-0.1-0.2-0.1c0,0.1,0,0.4,0,0.5c-0.1,0.1-0.1,0.2-0.1,0.3
			c0.1,0.1,0.2,0.2,0.2,0.3c0,0,0,0,0,0c0,0,0,0,0,0c0.2,0.3,0.4,0.4,0.4,0.2c0,0,0,0,0-0.1c0,0,0,0,0,0c0-0.1,0,0,0-0.1
			C566.9,168.2,566.7,168,566.5,168z"/>
		<path class="st0" d="M646.6,156.8c-7.3-52.1-60.5-85.2-109.3-90.6c-57.8-6.5-124.5-0.9-164.8,45.7c-25.8,29.9-29,61.2-27.2,99.5
			c2.2,47.5,9.5,94.9,17.3,141.7c17.7,107.2,39.5,215.3,71.4,319.3c1,6.6,4,12.9,8.1,18.4c1.3,1.8,2.7,3.5,4.3,5
			c5.2,5.2,11.4,9.3,17.9,11.1c13.5,3.7,25.3,0.3,34.6-7c9.2-5.7,16.1-14.6,17.5-26.1c33.7-84,60.6-171.3,85.1-258.4
			c13.7-48.8,26.6-97.9,36-147.7C644.3,231.7,651.7,193.5,646.6,156.8z M567.1,169c-0.1,0-0.1-0.1-0.3-0.1c0,0,0,0,0,0
			c0.2,1-0.1,1-0.5-0.2c-0.2-0.1-0.2-0.2-0.2-0.4c-0.1-0.1-0.2-0.3-0.3-0.5c0.3,11.9,0.5,23.5-0.7,35.4c-0.3,3.6-0.8,7.1-1.2,10.7
			c0,0,0,0,0,0.1c-0.3,1.8-0.5,3.6-0.8,5.3c-1.7,10.2-3.4,20.3-5.4,30.5c-8.6,44.4-19.8,88.3-31.9,131.8
			c-13.8,50-28.6,100-44.9,149.6c-10.3-44.4-19.3-89.2-27.9-133.8c-4.5-23.6-8.7-47.2-12.6-71c-3.8-23.1-6.6-42.5-8.8-60.9
			c-2.2-18.6-4-37.3-4.9-56c-0.3-7-0.5-14-0.3-21.1c0.1-3,0.3-6.1,0.3-9.1c0-1.3,0.1-1.9,0.2-2.7c-0.1,0.5-0.2,0.8-0.4,1.4
			c0.5-1.3,0.6-2.9,0.8-4.4c3.7-4.2,14.5-16.3,14.5-16.2c6.5-5,9.5-5.8,19.1-8c8.9-2.1,20.7-2.4,33.1-2.7
			c24.2-0.7,44.5-2.1,59.3,8.7c0.3,0.2,8,7.8,10.5,10.3c0.4,0.4,0.8,0.7,1.1,1c-1.1-2.3-2.1-4.9,0.2-0.9c0.2,0.3,0.2,0.4,0.3,0.7
			c0,0.2,0,0.5,0,0.7c0.1,0.1,0.2,0.1,0.3,0.2c0-0.1,0-0.2,0-0.3c0.1,0.2,0.1,0.3,0.2,0.5C567.5,168.6,568.1,169,567.1,169z"/>
		<path class="st0" d="M565.4,166.9c0.2,0.4,0.4,0.7,0.5,1c0-0.2,0-0.4,0-0.5C565.7,167.2,565.5,167.1,565.4,166.9z"/>
	</g>
</g>
</svg>
