<?xml version="1.0" encoding="utf-8"?>
<!-- Generator: Adobe Illustrator 26.0.0, SVG Export Plug-In . SVG Version: 6.00 Build 0)  -->
<svg version="1.1" id="Capa_1" xmlns="http://www.w3.org/2000/svg" xmlns:xlink="http://www.w3.org/1999/xlink" x="0px" y="0px"
	 viewBox="0 0 1000 1000" style="enable-background:new 0 0 1000 1000;" xml:space="preserve">
<style type="text/css">
	.st0{fill:#E5E5E5;}
	.st1{fill:#FFFFFF;}
	.st2{fill:#ED4842;}
	.st3{fill:#3F3D56;}
	.st4{fill:#CCCCCC;}
	.st5{fill:#F1F1F1;}
	.st6{fill:#FF6583;}
	.st7{fill:#9F616A;}
	.st8{fill:#CBCBCB;}
	.st9{fill:#2F2E41;}
</style>
<rect id="f54375ad-557d-4249-95e2-413e25c77bd8" x="6.1" y="174" class="st0" width="985.6" height="467.7"/>
<rect id="eb84611c-d49d-4ce2-b538-4fee0a7e188d" x="34.3" y="214.1" class="st1" width="929.3" height="390.2"/>
<rect id="a33b5263-04c3-449f-a8ad-1420252c1e48" x="5.7" y="147" class="st2" width="985.6" height="41.9"/>
<circle id="a01a8c4b-bf8b-4728-9381-d6cbaed15ee5" class="st1" cx="36.8" cy="167.9" r="7.8"/>
<circle id="a70f271b-ee75-4447-9507-72af025f0784" class="st1" cx="66.3" cy="167.9" r="7.8"/>
<circle id="b6ae4294-4107-4abd-ba05-1d458fcbc8d7" class="st1" cx="95.7" cy="167.9" r="7.8"/>
<path id="a98f5d70-28fc-4129-b4f3-463d07786f2f-374" class="st3" d="M186.5,303c-2.1,0-3.8,1.7-3.8,3.8c0,2.1,1.7,3.8,3.8,3.8l0,0
	h104.5c2.1,0,3.8-1.7,3.8-3.8c0-2.1-1.7-3.8-3.8-3.8H186.5z"/>
<path id="a5717240-4d8d-4c71-83bc-6deeb889f166-375" class="st4" d="M127.4,355.7c-2.1,0-3.8,1.7-3.8,3.8s1.7,3.8,3.8,3.8h222.8
	c2.1,0,3.8-1.7,3.8-3.8s-1.7-3.8-3.8-3.8H127.4z"/>
<path id="f9c6f13d-6e3a-4758-9844-a0f5d5c969ce-376" class="st4" d="M127.4,386.1c-2.1,0-3.8,1.7-3.8,3.8c0,2.1,1.7,3.8,3.8,3.8
	h222.8c2.1,0,3.8-1.7,3.8-3.8c0-2.1-1.7-3.8-3.8-3.8H127.4z"/>
<path id="bf808dfd-2bb2-4793-b7c6-d8671bf7e9b4-377" class="st4" d="M127.4,416.5c-2.1,0-3.8,1.7-3.8,3.8s1.7,3.8,3.8,3.8h222.8
	c2.1,0,3.8-1.7,3.8-3.8s-1.7-3.8-3.8-3.8H127.4z"/>
<path id="e27373f7-fd0b-426a-8828-0829b084b689-378" class="st4" d="M127.4,447c-2.1,0-3.8,1.7-3.8,3.8s1.7,3.8,3.8,3.8h222.8
	c2.1,0,3.8-1.7,3.8-3.8s-1.7-3.8-3.8-3.8H127.4z"/>
<path id="b4c6c7b3-e22e-4fba-a4f6-80d19d07dbd3-379" class="st4" d="M127.4,477.4c-2.1,0-3.8,1.7-3.8,3.8c0,2.1,1.7,3.8,3.8,3.8
	h222.8c2.1,0,3.8-1.7,3.8-3.8c0-2.1-1.7-3.8-3.8-3.8H127.4z"/>
<path id="ebf0dc46-a6ad-47cb-a3de-ddb71e9e94e3-380" class="st4" d="M127.4,507.9c-2.1,0-3.8,1.7-3.8,3.8s1.7,3.8,3.8,3.8h222.8
	c2.1,0,3.8-1.7,3.8-3.8s-1.7-3.8-3.8-3.8H127.4z"/>
<path class="st5" d="M862.4,517.2H525.1c-4.7,0-8.5-3.8-8.5-8.5V310.2c0-4.7,3.8-8.5,8.5-8.5h337.3c4.7,0,8.5,3.8,8.5,8.5v198.4
	C870.9,513.3,867.1,517.1,862.4,517.2z"/>
<path class="st1" d="M906.8,562.5H569.5c-4.7,0-8.5-3.8-8.5-8.5V355.6c0-4.7,3.8-8.5,8.5-8.5h337.3c4.7,0,8.5,3.8,8.5,8.5V554
	C915.3,558.7,911.5,562.5,906.8,562.5z"/>
<path class="st3" d="M906.8,565.4H569.5c-6.3,0-11.4-5.1-11.4-11.4V355.6c0-6.3,5.1-11.4,11.4-11.4h337.3c6.3,0,11.4,5.1,11.4,11.4
	V554C918.2,560.3,913.1,565.4,906.8,565.4z M569.5,350c-3.1,0-5.6,2.5-5.6,5.6V554c0,3.1,2.5,5.6,5.6,5.6h337.3
	c3.1,0,5.6-2.5,5.6-5.6V355.6c0-3.1-2.5-5.6-5.6-5.6L569.5,350z"/>
<circle class="st6" cx="737.7" cy="481.2" r="29.3"/>
<path class="st2" d="M794.1,453c-7.1-7.6-19.1-7.9-26.6-0.8c-0.1,0.1-0.2,0.2-0.3,0.3l-94.9,94.9c-12.2,12.2-24.9-6.5-33-14
	c-19.5-19.3-40.6,16.9-53.7,27.2h305.1v-3.9L794.1,453z"/>
<path class="st7" d="M418.1,568.1L413,497l9.2-66.7l-26.2-1.8l-5.2,73.6l14.6,69.2c-3.3,4.6-2.3,11,2.3,14.4
	c4.6,3.3,11,2.3,14.4-2.3c3.3-4.6,2.3-11-2.3-14.4C419.3,568.7,418.7,568.4,418.1,568.1L418.1,568.1z"/>
<path class="st8" d="M392.7,438.1l6.1-26.6c2.5-11,13.5-17.9,24.6-15.3c10.1,2.3,16.9,11.9,15.7,22.3l-3.4,30.1L392.7,438.1z"/>
<polygon class="st7" points="441.1,799.9 453.5,799.9 459.3,752.3 441.1,752.3 "/>
<path class="st9" d="M438,795.8l24.3,0h0c8.6,0,15.5,6.9,15.5,15.5v0.5l-39.8,0L438,795.8z"/>
<polygon class="st7" points="502.6,799.5 514.5,796.1 507,748.7 489.5,753.7 "/>
<path class="st9" d="M498.5,796.5l23.4-6.7l0,0c8.2-2.4,16.8,2.4,19.2,10.6l0.1,0.5l-38.3,11L498.5,796.5z"/>
<path class="st9" d="M434.5,782.6l5.7-144.2l-14.9-65.3c-20.1-33.6,1.6-87.3,1.8-87.8l0.1-0.2l0.2,0l52.5-7.1l0.7,1.7
	c20.5,46.9,26.2,99,16.3,149.3l-5.5,27.9l27,109l-25.6,12.8l-19.6-50.8l-13.3,52L434.5,782.6z"/>
<path class="st8" d="M420.2,498.6L403,448.4c-10.6-18.7-3.9-35.4,3.6-46.1c8.1-11.5,8.6-18,8.7-18l0.1-0.1l22.5-0.7l20.8,21.2
	c1.3-0.5,12.4,26.8,11.4,28.1l14.5,47L420.2,498.6z"/>
<path class="st7" d="M558.8,507.3l-56.4-43.6l-43.5-51.3l-18.8,18.3l51.4,53l61.3,35.3c1.2,5.6,6.7,9.1,12.3,7.9
	c5.6-1.2,9.1-6.7,7.9-12.3c-1.2-5.6-6.7-9.1-12.3-7.9C560.1,506.8,559.4,507,558.8,507.3L558.8,507.3z"/>
<path class="st8" d="M434.8,449.2l-15.7-22.3c-6.5-9.3-4.3-22,5-28.5c8.5-6,20.2-4.6,27.1,3.1l20.1,22.6L434.8,449.2z"/>
<circle class="st7" cx="424.1" cy="350.7" r="26.7"/>
<path class="st9" d="M451.3,337.2h-42.4v-18.5c9.3-3.7,18.4-6.8,23.9,0C443,318.7,451.3,327,451.3,337.2L451.3,337.2z"/>
<path class="st9" d="M414.7,314.3c-38.9-1.1-31.5,63-31.5,63s7.3,1,10.7,1.5l4-2.3l4.3,2.9c2,0,4.1,0,6.3-0.1l2-4.1l4.4,4
	c8.1,0,30.1,0.2,30.1,0.2S458.3,315.4,414.7,314.3z"/>
<path class="st8" d="M729.5,812.6H283.4c-0.6,0-1.2-0.5-1.2-1.2s0.5-1.2,1.2-1.2h446.1c0.6,0,1.2,0.5,1.2,1.2
	S730.1,812.6,729.5,812.6z"/>
</svg>
